<svg xmlns="http://www.w3.org/2000/svg" viewBox="0 0 20.65 12.85"><defs><style>.cls-1{fill:#dcdcdc;}</style></defs><title>behance</title><g id="Layer_2" data-name="Layer 2"><g id="Layer_1-2" data-name="Layer 1"><path id="Behance" class="cls-1" d="M18.65,1.82H13.47V.53h5.18V1.82ZM10,7.09A3.42,3.42,0,0,1,10.53,9,3.77,3.77,0,0,1,10,11a3.53,3.53,0,0,1-.91,1,3.48,3.48,0,0,1-1.45.64,8.61,8.61,0,0,1-1.81.18H0V0H6.21A3.94,3.94,0,0,1,9.53,1.37a3.21,3.21,0,0,1,.59,2,2.89,2.89,0,0,1-.59,1.89,3,3,0,0,1-1,.73A2.86,2.86,0,0,1,10,7.09ZM3,5.07H5.68A2.61,2.61,0,0,0,7,4.75a1.21,1.21,0,0,0,.52-1.13,1.15,1.15,0,0,0-.69-1.19,4.91,4.91,0,0,0-1.52-.2H3ZM7.82,8.79A1.38,1.38,0,0,0,7,7.41a3.37,3.37,0,0,0-1.29-.22H3v3.43H5.68A3,3,0,0,0,7,10.39,1.61,1.61,0,0,0,7.82,8.79ZM20.57,6.7a12.56,12.56,0,0,1,.08,1.82H14a2.18,2.18,0,0,0,1,2,2.42,2.42,0,0,0,1.32.34,2,2,0,0,0,1.34-.42,1.89,1.89,0,0,0,.49-.63h2.46a3,3,0,0,1-.89,1.66,4.45,4.45,0,0,1-3.46,1.34,5,5,0,0,1-3.24-1.13A4.44,4.44,0,0,1,11.52,8a5,5,0,0,1,1.27-3.67A4.41,4.41,0,0,1,16.08,3a5.26,5.26,0,0,1,2.17.43,3.69,3.69,0,0,1,1.58,1.36A4.6,4.6,0,0,1,20.57,6.7Zm-2.42.24a2,2,0,0,0-.64-1.46A2.11,2.11,0,0,0,16.08,5a1.88,1.88,0,0,0-1.43.53A2.47,2.47,0,0,0,14,6.94Z"/></g></g></svg>