<svg xmlns="http://www.w3.org/2000/svg" viewBox="0 0 15.8 15.8"><defs><style>.cls-1{fill:#c1e4f8;}</style></defs><title>Asset 1</title><g id="Layer_2" data-name="Layer 2"><g id="Layer_1-2" data-name="Layer 1"><path class="cls-1" d="M7.6,6.13A33,33,0,0,0,5.6,3a5.4,5.4,0,0,0-3,3.77A20,20,0,0,0,7.6,6.13Z"/><path class="cls-1" d="M6.61,2.66h0Z"/><path class="cls-1" d="M11.46,3.85A5.36,5.36,0,0,0,7.9,2.51a5.26,5.26,0,0,0-1.27.15,27,27,0,0,1,2,3.14A5.83,5.83,0,0,0,11.46,3.85Z"/><path class="cls-1" d="M8.82,8.78a7.24,7.24,0,0,0-4.23,3.37A5.37,5.37,0,0,0,7.9,13.29a5.22,5.22,0,0,0,2.1-.43A22.26,22.26,0,0,0,8.85,8.77Z"/><path class="cls-1" d="M8.27,7.94l.21-.06c-.13-.31-.28-.62-.43-.92a20,20,0,0,1-5.54.77V7.9a5.36,5.36,0,0,0,1.38,3.6h0A8.6,8.6,0,0,1,8.27,7.94Z"/><path class="cls-1" d="M7.9,0a7.9,7.9,0,1,0,7.9,7.9A7.9,7.9,0,0,0,7.9,0Zm6.18,9.17a6.06,6.06,0,0,1-.36,1.19,6.58,6.58,0,0,1-.59,1.07,5.68,5.68,0,0,1-.77.93,5.29,5.29,0,0,1-.93.77,6.58,6.58,0,0,1-1.07.59,6.06,6.06,0,0,1-1.19.36,6.27,6.27,0,0,1-2.54,0,6.06,6.06,0,0,1-1.19-.36,6.19,6.19,0,0,1-1.07-.59,5.75,5.75,0,0,1-.94-.77,6.34,6.34,0,0,1-.77-.93,7.38,7.38,0,0,1-.58-1.07,6.85,6.85,0,0,1-.37-1.19A6.67,6.67,0,0,1,1.58,7.9a6.67,6.67,0,0,1,.13-1.27,6.85,6.85,0,0,1,.37-1.19,6.46,6.46,0,0,1,.58-1.07,7,7,0,0,1,.77-.94,7,7,0,0,1,.94-.77,6.32,6.32,0,0,1,2.26-1A6.67,6.67,0,0,1,7.9,1.58a6.76,6.76,0,0,1,1.27.13,6.08,6.08,0,0,1,1.19.37,6.53,6.53,0,0,1,1.07.58,6.92,6.92,0,0,1,.93.77,5.75,5.75,0,0,1,.77.94,6.19,6.19,0,0,1,.59,1.07,6.06,6.06,0,0,1,.36,1.19,6,6,0,0,1,.13,1.27A6,6,0,0,1,14.08,9.17Z"/><path class="cls-1" d="M9.86,8.52a22.58,22.58,0,0,1,1.05,3.85,5.39,5.39,0,0,0,2.31-3.62A7.94,7.94,0,0,0,9.86,8.52Z"/><path class="cls-1" d="M9.06,6.61l.36.78c0,.09.07.19.11.28a13,13,0,0,1,3.76.17,5.34,5.34,0,0,0-1.23-3.37A6.83,6.83,0,0,1,9.06,6.61Z"/></g></g></svg>