<svg xmlns="http://www.w3.org/2000/svg" viewBox="0 0 38.92 38.92"><defs><style>.cls-1{fill:#c1e4f8;}</style></defs><title>Asset 1</title><g id="Layer_2" data-name="Layer 2"><g id="Layer_1-2" data-name="Layer 1"><path class="cls-1" d="M28.18,0H10.74A10.75,10.75,0,0,0,0,10.74V28.18A10.75,10.75,0,0,0,10.74,38.92H28.18A10.74,10.74,0,0,0,38.92,28.18V10.74A10.75,10.75,0,0,0,28.18,0ZM19.46,29.49a10,10,0,1,1,10-10A10,10,0,0,1,19.46,29.49ZM31.7,10.83A2.53,2.53,0,1,1,29.91,6.5a2.53,2.53,0,0,1,1.79,4.33Z"/></g></g></svg>