<svg xmlns="http://www.w3.org/2000/svg" viewBox="0 0 16.3 15.62"><defs><style>.cls-1{fill:#c1e4f8;}</style></defs><title>linkedin</title><g id="Layer_2" data-name="Layer 2"><g id="Layer_1-2" data-name="Layer 1"><g id="LinkedIn"><path class="cls-1" d="M15.78,9.46V15.1H12.51V9.84c0-1.33-.48-2.23-1.66-2.23a1.8,1.8,0,0,0-1.68,1.2,2.38,2.38,0,0,0-.11.8V15.1H5.79s0-8.91,0-9.84H9.06v1.4l0,0h0v0A3.26,3.26,0,0,1,12,5C14.16,5,15.78,6.44,15.78,9.46ZM2.37.52a1.7,1.7,0,1,0,0,3.4h0a1.71,1.71,0,1,0,0-3.4ZM.71,15.1H4V5.26H.71Z"/><path class="cls-1" d="M15.78,15.62H12.51A.52.52,0,0,1,12,15.1V9.84c0-1.71-.83-1.71-1.14-1.71A1.28,1.28,0,0,0,9.66,9a1.49,1.49,0,0,0-.08.61V15.1a.52.52,0,0,1-.52.52H5.79a.51.51,0,0,1-.52-.52c0-.09.05-8.91,0-9.81a.58.58,0,0,1,.15-.39.51.51,0,0,1,.37-.16H9.06a.52.52,0,0,1,.52.52v0A3.78,3.78,0,0,1,12,4.51c2.65,0,4.29,1.9,4.29,5V15.1A.52.52,0,0,1,15.78,15.62Zm-2.75-1h2.23V9.46C15.26,7,14.08,5.55,12,5.55a2.7,2.7,0,0,0-2.45,1.3.53.53,0,0,1-1,.09.54.54,0,0,1-.06-.39V5.78H6.32c0,1.82,0,7.1,0,8.8H8.54v-5a2.66,2.66,0,0,1,.15-1,2.29,2.29,0,0,1,2.16-1.52c.66,0,2.18.27,2.18,2.75Zm-9,1H.71a.52.52,0,0,1-.52-.52V5.26a.53.53,0,0,1,.52-.52H4a.52.52,0,0,1,.52.52V15.1A.52.52,0,0,1,4,15.62Zm-2.75-1H3.46V5.78H1.23ZM2.35,4.44A2.22,2.22,0,1,1,2.37,0a2.22,2.22,0,1,1,0,4.44Zm0-3.4a1.19,1.19,0,1,0,0,2.36A1.2,1.2,0,0,0,3.68,2.22,1.18,1.18,0,0,0,2.37,1Z"/></g></g></g></svg>