<svg xmlns="http://www.w3.org/2000/svg" xmlns:xlink="http://www.w3.org/1999/xlink" viewBox="0 0 493.18 318.32"><defs><style>.cls-1{fill:none;}.cls-2,.cls-3,.cls-6{fill:#bcbec0;}.cls-2{clip-rule:evenodd;}.cls-4{clip-path:url(#clip-path);}.cls-5{opacity:0.1;isolation:isolate;}.cls-6{fill-rule:evenodd;}.cls-7{clip-path:url(#clip-path-3);}.cls-8{clip-path:url(#clip-path-4);}.cls-9{clip-path:url(#clip-path-5);}.cls-10{clip-path:url(#clip-path-7);}.cls-11{clip-path:url(#clip-path-9);}.cls-12{clip-path:url(#clip-path-11);}</style><clipPath id="clip-path"><rect class="cls-1" x="7.96" y="8.1" width="477.12" height="302.72"/></clipPath><clipPath id="clip-path-3"><path class="cls-2" d="M86.14,159.16a11.58,11.58,0,0,0-11.55-11.61H59.72a11.61,11.61,0,0,0,0,23.22H74.59a11.58,11.58,0,0,0,11.55-11.61"/></clipPath><clipPath id="clip-path-4"><rect class="cls-3" x="7.96" y="8.1" width="477.12" height="302.72"/></clipPath><clipPath id="clip-path-5"><path class="cls-2" d="M361.45,194a11.61,11.61,0,0,1,0-23.22h56.17a11.61,11.61,0,0,0,0-23.22h-86.5a11.61,11.61,0,0,1,0-23.22H473.4a11.61,11.61,0,0,0,0-23.22H331.12a11.61,11.61,0,0,1,0-23.22h73.69a11.61,11.61,0,0,0,0-23.22H295a11.92,11.92,0,0,1-9.71-11.61A11.56,11.56,0,0,1,295,31.64l1.84-.19H308a11.61,11.61,0,0,0,0-23.22H259a11.61,11.61,0,0,0,0,23.22h6.09a11.61,11.61,0,0,1,0,23.22H197a11.61,11.61,0,0,0,0,23.22h17.66a11.61,11.61,0,0,1,0,23.22H57.21a11.61,11.61,0,0,0,0,23.22h157.4a11.61,11.61,0,0,1,0,23.22H111.47a11.61,11.61,0,0,0,0,23.22h21.19a11.61,11.61,0,0,1,0,23.22H19.78a11.61,11.61,0,0,0,0,23.22h198a11.61,11.61,0,0,1,0,23.22H127.88a11.62,11.62,0,0,0,0,23.23H192c7.6,0,12.77,5.19,12.77,11.61a11.58,11.58,0,0,1-11.55,11.61h-4a11.61,11.61,0,0,0,0,23.22h75.82a11.61,11.61,0,0,0,0-23.22H257.2a11.61,11.61,0,0,1,0-23.22h81.14a11.62,11.62,0,0,0,0-23.23H312.43a11.61,11.61,0,0,1,0-23.22H438.94a11.61,11.61,0,0,0,0-23.22H361.45Z"/></clipPath><clipPath id="clip-path-7"><path class="cls-2" d="M289.54,298.49a11.58,11.58,0,0,0,11.55,11.61h6.24a11.61,11.61,0,0,0,0-23.22h-6.24a11.57,11.57,0,0,0-11.55,11.61"/></clipPath><clipPath id="clip-path-9"><path class="cls-2" d="M363.26,252a11.58,11.58,0,0,0,11.55,11.62h16.1a11.62,11.62,0,0,0,0-23.23h-16.1A11.58,11.58,0,0,0,363.26,252"/></clipPath><clipPath id="clip-path-11"><path class="cls-2" d="M238.77,19.84A11.57,11.57,0,0,0,227.22,8.23h-2.11a11.61,11.61,0,0,0,0,23.22h2.11a11.58,11.58,0,0,0,11.55-11.61"/></clipPath></defs><title>cloud</title><g id="Layer_2" data-name="Layer 2"><g id="Layer_1-2" data-name="Layer 1"><g class="cls-4"><g class="cls-5"><g class="cls-4"><path class="cls-6" d="M86.14,159.16a11.58,11.58,0,0,0-11.55-11.61H59.72a11.61,11.61,0,0,0,0,23.22H74.59a11.58,11.58,0,0,0,11.55-11.61"/><g class="cls-7"><rect class="cls-3" x="7.96" y="8.1" width="477.12" height="302.72"/><g class="cls-8"><rect class="cls-3" x="39.94" y="139.32" width="54.43" height="39.67"/></g></g><path class="cls-6" d="M361.45,194a11.61,11.61,0,0,1,0-23.22h56.17a11.61,11.61,0,0,0,0-23.22h-86.5a11.61,11.61,0,0,1,0-23.22H473.4a11.61,11.61,0,0,0,0-23.22H331.12a11.61,11.61,0,0,1,0-23.22h73.69a11.61,11.61,0,0,0,0-23.22H295a11.92,11.92,0,0,1-9.71-11.61A11.56,11.56,0,0,1,295,31.64l1.84-.19H308a11.61,11.61,0,0,0,0-23.22H259a11.61,11.61,0,0,0,0,23.22h6.09a11.61,11.61,0,0,1,0,23.22H197a11.61,11.61,0,0,0,0,23.22h17.66a11.61,11.61,0,0,1,0,23.22H57.21a11.61,11.61,0,0,0,0,23.22h157.4a11.61,11.61,0,0,1,0,23.22H111.47a11.61,11.61,0,0,0,0,23.22h21.19a11.61,11.61,0,0,1,0,23.22H19.78a11.61,11.61,0,0,0,0,23.22h198a11.61,11.61,0,0,1,0,23.22H127.88a11.62,11.62,0,0,0,0,23.23H192c7.6,0,12.77,5.19,12.77,11.61a11.58,11.58,0,0,1-11.55,11.61h-4a11.61,11.61,0,0,0,0,23.22h75.82a11.61,11.61,0,0,0,0-23.22H257.2a11.61,11.61,0,0,1,0-23.22h81.14a11.62,11.62,0,0,0,0-23.23H312.43a11.61,11.61,0,0,1,0-23.22H438.94a11.61,11.61,0,0,0,0-23.22H361.45Z"/><g class="cls-9"><rect class="cls-3" x="7.96" y="8.1" width="477.12" height="302.72"/><g class="cls-8"><rect class="cls-3" width="493.18" height="318.32"/></g></g><path class="cls-6" d="M289.54,298.49a11.58,11.58,0,0,0,11.55,11.61h6.24a11.61,11.61,0,0,0,0-23.22h-6.24a11.57,11.57,0,0,0-11.55,11.61"/><g class="cls-10"><rect class="cls-3" x="7.96" y="8.1" width="477.12" height="302.72"/><g class="cls-8"><rect class="cls-3" x="281.31" y="278.65" width="45.79" height="39.67"/></g></g><path class="cls-6" d="M363.26,252a11.58,11.58,0,0,0,11.55,11.62h16.1a11.62,11.62,0,0,0,0-23.23h-16.1A11.58,11.58,0,0,0,363.26,252"/><g class="cls-11"><rect class="cls-3" x="7.96" y="8.1" width="477.12" height="302.72"/><g class="cls-8"><rect class="cls-3" x="355.03" y="232.21" width="55.65" height="39.67"/></g></g><path class="cls-6" d="M238.77,19.84A11.57,11.57,0,0,0,227.22,8.23h-2.11a11.61,11.61,0,0,0,0,23.22h2.11a11.58,11.58,0,0,0,11.55-11.61"/><g class="cls-12"><rect class="cls-3" x="7.96" y="8.1" width="477.12" height="302.72"/><g class="cls-8"><rect class="cls-3" x="205.33" width="41.67" height="39.67"/></g></g></g></g></g></g></g></svg>