<svg xmlns="http://www.w3.org/2000/svg" xmlns:xlink="http://www.w3.org/1999/xlink" viewBox="0 0 136.95 91.17"><defs><style>.cls-1{fill:none;}.cls-2{fill:#c0e3f6;}.cls-3{clip-path:url(#clip-path);}.cls-4{fill:#bfe3f6;}.cls-5{fill:#c0e4f7;}.cls-6{fill:#8dd6ef;}</style><clipPath id="clip-path"><path class="cls-1" d="M12.83,43.63,33.58,91.17H99.67a11.67,11.67,0,0,0,0-23.34H87.07L64.12,49.62A18.61,18.61,0,0,1,61.9,58.7c-6.24,10.9-21.83,11-30.72,3.49-8.65-7.26-7.94-18.55-7.94-28.76Z"/></clipPath></defs><title>Asset 4</title><g id="Layer_2" data-name="Layer 2"><g id="Layer_1-2" data-name="Layer 1"><path class="cls-2" d="M12.83,43.63l20.75,46,56.75,1.5h9.34a11.67,11.67,0,0,0,0-23.34H87.07L64.12,49.62A18.61,18.61,0,0,1,61.9,58.7c-6.24,10.9-21.83,11-30.72,3.49-8.65-7.26-7.94-18.55-7.94-28.76Z"/><g class="cls-3"><circle class="cls-4" cx="38.96" cy="45.58" r="26.13"/><circle class="cls-5" cx="110.83" cy="57.03" r="26.13"/></g><path id="_Clipping_Path_" data-name="&lt;Clipping Path&gt;" class="cls-6" d="M97.58,91.17H32.46A32.34,32.34,0,0,1,.12,58.83L0,11.67a11.67,11.67,0,1,1,23.33,0V39.53c0,10.21-.77,21.5,7.88,28.76,8.88,7.46,24.48,7.41,30.72-3.49a17.34,17.34,0,0,0,2.23-8.74c0-6.14-.33-12.25-.33-18.39a11.67,11.67,0,0,1,23.34,0l-.1,8.58V76.57c0,8.46,4.94,13.87,11.21,14.6Z"/></g></g></svg>