<svg xmlns="http://www.w3.org/2000/svg" viewBox="0 0 16.92 10.3"><defs><style>.cls-1{fill:#f8b232;}</style></defs><title>Asset 3</title><g id="Layer_2" data-name="Layer 2"><g id="Layer_1-2" data-name="Layer 1"><path class="cls-1" d="M14,6.79l0,0c-1.22,2.33-3.55,3.48-6.55,3.48C3.22,10.3.27,7.9,0,3.26,0,3,0,1.25,0,1A1,1,0,0,1,1,0,1,1,0,0,1,2,1c0,.24,0,2,0,2.26C2.28,6.67,4.31,8.43,7.5,8.43c3,0,5.06-1.62,5.37-4.93,0-.29,0-2.16,0-2.47a1,1,0,0,1,1-1,1,1,0,0,1,1,1c0,.24,0,1.47,0,2.08h0l.22.05a3.5,3.5,0,0,1,1.11.51A1.81,1.81,0,0,1,16.7,6,1.81,1.81,0,0,1,14.6,7,2.42,2.42,0,0,1,14,6.79Z"/></g></g></svg>